<svg id="Layer_2" data-name="Layer 2" xmlns="http://www.w3.org/2000/svg" viewBox="0 0 360 360"><defs><style>.cls-1{fill:none;stroke:#fff;stroke-linecap:round;stroke-linejoin:round;stroke-width:1.5px;}.cls-2{opacity:0.2;font-size:306.67px;font-family:AvenirNext-Medium, Avenir Next;font-weight:500;}.cls-2,.cls-3{fill:#568fe8;}.cls-3{font-size:71.77px;font-family:Poppins-ThinItalic, Poppins;font-weight:200;font-style:italic;}</style></defs><path class="cls-1" d="M337.06,242.2A69.81,69.81,0,0,1,331.57,255a25.82,25.82,0,0,0-1.77,3.85c-2.69,8-8,14.36-13,20.83a118.18,118.18,0,0,1-20.12,20.05,131,131,0,0,1-17.39,11.85,123.43,123.43,0,0,1-25.65,11c-3.51,1-7.36,1-10.48,3.27-2-1-3.83.23-5.71.5A168.63,168.63,0,0,1,216.24,328c-2.85,0-5.71-.14-8.56-.22"/><path class="cls-1" d="M64.26,281.68a4.29,4.29,0,0,0,.71,2.85,135.63,135.63,0,0,0,24.21,29.55A128.48,128.48,0,0,0,107.33,328a134.42,134.42,0,0,0,20.38,10.88,184.24,184.24,0,0,0,17.71,6.33,96.81,96.81,0,0,0,16.82,3.17c3.54.39,6.79-.83,10.24-.7a4.86,4.86,0,0,1,3.33,1.05"/><path class="cls-1" d="M121.1,52.64a105.86,105.86,0,0,0-21.84,7A144.54,144.54,0,0,0,76.15,72.37,146.63,146.63,0,0,0,63.1,82.88c-7.73,6.64-13.93,14.69-20,22.83a133.88,133.88,0,0,0-10.83,17.53,19.92,19.92,0,0,0-2.06,10.5"/><path class="cls-1" d="M191,77.61c-.11-1.07.42-.93,1.19-.73,3.29.83,6.53,1.84,9.78,2.77,3.95,1.11,7.78,2.52,11.63,3.88a113,113,0,0,1,22.59,11.21A130.31,130.31,0,0,1,266.4,121.4c2.69,3.2,5.1,6.63,7.63,10,.56.73.21,1.58.24,2.37"/><path class="cls-1" d="M68.07,101.64a128,128,0,0,0-13.82,19.49,175.19,175.19,0,0,0-9.55,20.68c-2.94,7.43-4.63,15.18-6.49,22.88a84.82,84.82,0,0,0-1.27,8.54c-.26,1.92.78,2.4,2.82,1.42"/><path class="cls-1" d="M59.74,201.29c1,1.42.93,3.18,1.45,4.75,1.1,3.31,2.56,6.53,3.64,9.81,1.47,4.49,5.57,8.61,7.63,12.79,4.72,9.56,8.37,18.52,15.33,26.66a127.11,127.11,0,0,0,17.68,17.27c3.55,2.8,6.94,6.05,11.15,7.85,3.93,1.67,6.35,4.72,8.78,7.91.2.25.62.33.94.48"/><path class="cls-1" d="M345.39,202c1.76-.67,1.11-2.5,1.29-3.59a147.77,147.77,0,0,0,1.84-17.33,112.34,112.34,0,0,0-.8-19.5,131.55,131.55,0,0,0-5.82-25.48,144.29,144.29,0,0,0-9-20.71,168.89,168.89,0,0,0-10.11-15.86c-.85-1.25-1.74-2.77-3.52-3.13"/><path class="cls-1" d="M312.09,88.08a61,61,0,0,1-8.32-10.23c-3-4.94-7.19-8.81-10.94-13.09-4.28-4.88-9.29-9-14.31-13a91.81,91.81,0,0,0-16.38-10.5c-6.5-3.29-13-6.64-20-8.74-4.06-1.22-8.15-2.4-12.32-3.31-3.41-.75-6.88-1.37-10.29-2.08a51.86,51.86,0,0,0-9.72-1c-7.21-.1-14.44-.48-21.66.52-3.54.48-7.2.62-10.66,1.39a125.29,125.29,0,0,0-13.13,3.15,154.13,154.13,0,0,0-17.12,6.45c-5.31,2.52-10.43,5.32-15.47,8.32-2.18,1.3-4,3.19-6.37,4.16-.18.07-1,.63-.74,1.35"/><path class="cls-1" d="M327.79,246.48c-3.54,4.84-6.93,9.79-10.93,14.28a116.15,116.15,0,0,1-24.5,21.42c-2.23,1.41-4.11,3.4-6.9,3.82-.44.06-.84.56-1.19.92a15.43,15.43,0,0,1-8.11,4.22c-.6.13-.84.55-1.28.78-1.86,1-3.61,2.17-5.84,2.16-.32,0-.63.44-1,.68"/><path class="cls-1" d="M120.39,307.6c2.53,2.12,5.75,2.94,8.58,4.5a78.91,78.91,0,0,0,16.89,7.09A167.13,167.13,0,0,0,163,322.91c7.12,1.2,14.28,1.24,21.42,1.44,3.11.08,6.48.46,9.51-1.05"/><path class="cls-1" d="M147.5,50.74c-4.28,1.74-8.52,3.6-12.85,5.2-4.8,1.78-9.08,4.52-13.54,6.93A66.21,66.21,0,0,0,105.8,73.73c-3.88,3.84-8.37,6.76-12.46,10.23-3.42,2.9-7.55,5-10.74,8.19-1.25,1.27-3.24,2.1-3.12,4.37"/><path class="cls-1" d="M198.64,94.5a7.73,7.73,0,0,0-4.79-3.89c-1.43-.34-3.13-.13-4.73-.36a87.17,87.17,0,0,0-15-.47c-6.95.22-13.9.62-20.69,2.32-.36.09-.79-.14-1.19-.21"/><path class="cls-1" d="M82.34,96.88c-.09,2.3-1.93,3.63-3.15,5.19-4.3,5.5-8.71,10.92-12.32,16.92-2.89,4.82-5.71,9.65-8.18,14.7-1.26,2.58-.22,4.38.58,6.48"/><path class="cls-1" d="M45.71,205.57a84.6,84.6,0,0,1,1.66,10c1.1,9.11,4.07,17.64,7.23,26.22,2.59,7,6.57,13.22,9.7,19.9,1.11,2.37,3.21,4.23,3.77,6.92"/><path class="cls-1" d="M204,96.88c.33-2.71,1.42-3.79,3.92-3.28a41.56,41.56,0,0,1,8.3,2.4c3.14,1.38,6.44,2.28,9.59,3.63s6.49,2.89,9.69,4.42a97,97,0,0,1,18.78,11.88c4.47,3.59,9.16,7,13,11.27,3,3.35,6.81,5.93,9.4,9.65a126.12,126.12,0,0,1,9.52,15.92"/><path class="cls-1" d="M99,101.64c-2.64,2.83-5.72,5.2-8.37,8A134,134,0,0,0,77,126.31c-2.5,3.72-4.45,7.71-6.83,11.46-5.78,9.12-9,19.25-11.83,29.52a2.3,2.3,0,0,0,.19,2.13"/><path class="cls-1" d="M55,204.14V188.06c-2,1.08-1.69,2.42-1.87,3.49-.65,3.78-.62,7.78-1.86,11.35-1.14,3.3-.79,6.43-.46,9.56a109.14,109.14,0,0,0,2.29,11.66c1.42,6.51,3.91,12.64,6.37,18.81a145.49,145.49,0,0,0,12.63,23.78,17.31,17.31,0,0,0,2.64,3.83c0,.36,0,.64,0,.66-3.74,1.51-2.24,5.24-3.24,7.89-.51,1.32,1.21,2.2,3,1.91,1.51-.25,2.88-1.3,4.52-.76.31.1.74-.07.71.49"/><path class="cls-1" d="M15.74,200.58c-1.11,1.07-.85,2.57-.88,3.8-.1,4.6.05,9.2.2,13.8,0,1.28.45,2.53,2.11,2.61a2.77,2.77,0,0,0,3.09-1.9,14.82,14.82,0,0,0,0-9.51"/><path class="cls-1" d="M269.52,295.47c-3.17-1.41-5.78-.19-8.34,1.66-3.73,2.69-7.24,5.67-11.15,8.12-3.26,2-6.44,4.4-10,5.57-6.51,2.12-12.35,5.69-18.75,8-4,1.45-8.23,2.11-12.36,3.14-1.43.36-3.28-.36-4.29,1.36"/><path class="cls-1" d="M262.14,103.3a5.31,5.31,0,0,0,1.41,4.06,119.2,119.2,0,0,1,16.17,27.11c.24.55,1,.86.74,1.65"/><path class="cls-1" d="M57.6,223.41c1.43,5.07,2.79,10.17,4.3,15.22,1.71,5.71,4.36,11,6.85,16.43A115,115,0,0,0,81.44,275.7a4.39,4.39,0,0,1,.66,2.65"/><path class="cls-1" d="M326.83,134.7c-2.08-2.18-3.36-4.9-5-7.4a121.48,121.48,0,0,0-14.08-17.56,48.71,48.71,0,0,0-6.4-6.2"/><path class="cls-1" d="M246.21,52.64a2,2,0,0,1,2.36-.68C255.18,54,262,55.63,268.3,58.4a174,174,0,0,1,16.25,8.19A163,163,0,0,1,301.9,78.28c1.13.85,1.53,2.62,3.29,2.66"/><path class="cls-1" d="M236.69,307.84c-1.85,1-3.05,2.87-5.23,3.34-4.09.88-8.08,2.24-12.37,2.18-2.45,0-4.76,1.09-7.11,1.7a157.72,157.72,0,0,1-23.57,4.66c-.82.09-1.59.07-1.54,1.2"/><path class="cls-1" d="M59,270.74a1.32,1.32,0,0,0,0,1.66c1.64,2.87,2.82,6.22,5.1,8.45,3.38,3.29,5.75,7.26,8.63,10.86a142,142,0,0,0,10,10.91,30.62,30.62,0,0,0,6.45,4.72,8.51,8.51,0,0,0,11.65-3.54,16,16,0,0,1,.94-1.43"/><path class="cls-1" d="M225.28,69.77c.55.47,1,1.16,1.67,1.39a118.8,118.8,0,0,1,21.64,10.73c1.71,1,5.33-1.34,5.35-3.8,0-.85.49-1.25.59-1.9"/><path class="cls-1" d="M239.55,56c-1.82,1.17-3.15-.47-4.48-1A106.09,106.09,0,0,0,221,49.71a138.52,138.52,0,0,0-14-2.88c-4.6-.69-9.18-1-13.81-1.38A71.23,71.23,0,0,0,181,45.28c-1.91.19-3.93-.53-5.71.7"/><path class="cls-1" d="M181.28,76.9c-7.88,3.08-15.76,6.2-23,10.52a169.9,169.9,0,0,0-22.63,16.12"/><path class="cls-1" d="M144.18,63.11a4.14,4.14,0,0,0-3.58-.51,133.43,133.43,0,0,0-23.52,7.46c-3.77,1.51-7.31,3.59-11,5.41-.53.27-1,.68-1.66.24"/><path class="cls-1" d="M164.39,314.26c-2.69.94-5.41.13-8.08-.05a108.63,108.63,0,0,1-11.65-1.42c-3.13-.56-6.19-1.54-9.28-2.33"/><path class="cls-1" d="M284,124.94a3.78,3.78,0,0,0,.46,3.59,109.63,109.63,0,0,1,8.28,16.18,130,130,0,0,1,7.17,21.86c.39,1.59.05,3.36,1.22,4.75"/><path class="cls-1" d="M313.75,88.32c3.06,3.06,4.74,6.84,6,10.93,2.24,7.4,4.78,14.73,6.13,22.37.66,3.71,1.55,7.45,1.53,11.17a30.06,30.06,0,0,0,1,6.44c.33,1.57-.44,3.33-.34,5a127.82,127.82,0,0,1-1,24.26,118.21,118.21,0,0,1-6.46,26.63,8.53,8.53,0,0,1-.7,1.2"/><path class="cls-1" d="M28.59,131.37c-.68,4-2.92,7.42-4.3,11.17a126.83,126.83,0,0,0-6.67,26.16,174.62,174.62,0,0,0-1.9,21.41c0,2.46-.25,4.92-.48,7.37a3.52,3.52,0,0,0,.5,1.67"/><path class="cls-1" d="M121.82,52.17c-1.26,3-4.34,4.06-6.46,6.15-5.69,5.62-11.47,11.14-15.9,17.87-.79,1.19-2.81,1.76-1.9,3.8"/><path class="cls-1" d="M231.7,294.28c.34,2.21-.54,3.49-2.59,4.58A135.73,135.73,0,0,1,208.37,308a133.79,133.79,0,0,1-25.17,5.69c-4.29.58-8.69-.18-12.86,1.28"/><path class="cls-1" d="M198.76,67.86c-.1-1,.57-1.21,1.31-1.17,3.76.19,7.6-.15,11.16,1.44a3,3,0,0,0,1.91.17c2.48-.55,4.44,1,6.66,1.49a1.7,1.7,0,0,1,1.4,1.41c.28,2.63,2.25,3.24,4.31,3.81.24.07.46-.2.75.21,2,2.81,5.13,3.85,8.29,4.79a4.94,4.94,0,0,1,1.66.95c2.63,2.19,6.21,2.09,9,3.78,5.26,3.14,10.59,6.12,15.25,10.2,3.94,3.43,8.1,6.62,11.87,10.25A129.25,129.25,0,0,1,285,119.47"/><path class="cls-1" d="M283.31,265c.51.86-.13,1.51-.49,2.13a56.82,56.82,0,0,1-5.63,8.18c-4.37,5-8.48,10.32-13.58,14.71-3,2.59-5.25,6.17-8.47,8.36-2.61,1.76-4.94,3.85-7.52,5.61s-5.48,3.6-8.34,5.19c-.84.47-1.18.87-1.16,1.72"/><path class="cls-1" d="M67.4,177.84c2,1.51-1.05,8.24-.47,10.22,2,6.92-2.33,15.88.7,22.4.26.56-.22,1.41.67,1.68"/><path class="cls-1" d="M74,281.44c.18,2.24,2.32,3,3.65,3.93,6.08,4.14,12.17,8.3,19,11.3a30,30,0,0,1,4.48,2.19,5.63,5.63,0,0,0,2.65,1.19c5,.53,8.9,3.76,13.52,5.31a14.61,14.61,0,0,0,4.56,1.13c2.69,0,5.24,1.16,7.85,1.82,2.18.55,4.28,1.6,6.67,1a3.47,3.47,0,0,1,2.36.21"/><path class="cls-1" d="M110.88,298.33c1.56,1.62,3.78,1.6,5.72,2.08,8.89,2.19,17.94,4.14,27.09,3.67,4.65-.25,7.26,2.64,10.69,4.29,4.59,2.22,8.92,5,13.82,6.59a10,10,0,0,0,1.9.25"/><path class="cls-1" d="M268.56,281.68c-.9-.58-1.2.3-1.66.72-3.1,2.84-6,5.87-9.31,8.51-3.65,3-7.1,6.24-11.35,8.43-.53.27-1.55.56-1.46,1.6"/><path class="cls-1" d="M219.09,328.06c-1.21,2.69-.05,5.57-.64,8.34-.09.42.35,1.29,1.61,1,2.23-.49,4.1-1.7,6.15-2.5a91.42,91.42,0,0,0,15.95-8.06c.22-.15.32-.47.48-.71"/><path class="cls-1" d="M281.88,289.29a4.94,4.94,0,0,1-1.19,2.61,138.67,138.67,0,0,1-15,17.09,53,53,0,0,1-5.38,4.86c-.89.65-2.23,1.28-2.19,2.79"/><path class="cls-1" d="M81.86,133a122.45,122.45,0,0,0-16.58,24.06c-1.92,3.58-4.07,7.11-5.05,11.14-.23.92-.42,1.77-1.68,1.19"/><path class="cls-1" d="M37.15,175.13c-1.07,2.84-.94,5.87-1.12,8.8-.22,3.71.15,7.45.15,11.18,0,4.49.86,8.89,1.36,13.32s1.23,8.74,2,13.07a122,122,0,0,0,2.79,12.15,89.41,89.41,0,0,0,4.34,12.58c1.72,3.73,2.66,7.82,5.16,11.22.63.87.46,2.28.84,3.27,1.34,3.45,3.41,7,6.07,9s4.52,5,7.86,6.28a5.29,5.29,0,0,1,5.25-2.21"/><path class="cls-1" d="M299.48,251.47a32.34,32.34,0,0,1-3.55,13.33c-2.41,4.87-4.52,9.91-7.86,14.26.58,2.65-2.84,3.82-2.38,6.42"/><path class="cls-1" d="M270.94,274.31c-4.56,2.78-8.78,6.1-13.55,8.57-2.17,1.13-4.24,2.46-6.45,3.5-.73.34-1.64.9-2.59.41"/><path class="cls-1" d="M264.52,103.06a128.25,128.25,0,0,1,12.12,13.81c1,1.3,1.86,2.73,2.89,4a3.11,3.11,0,0,1,.69,2.16"/><path class="cls-1" d="M213.86,67.39a6.07,6.07,0,0,0-3.56-1.69c-3.11-.74-5.4-3.08-8.3-4.33a172.13,172.13,0,0,0-20-7.13c-8.27-2.42-16.75-3.34-25.22-4.55a15.43,15.43,0,0,0-6,.33c-1.84.44-3.64-.15-5.47-.23-5.75-.24-11.4,1-17.12,1.19"/><path class="cls-1" d="M52.37,260.51c-1.52,0-2.16-1.29-2.8-2.18-3.27-4.61-6.71-9.1-9.57-14-.58-1-1.19-2-2.61-1.67"/><path class="cls-1" d="M235.27,69.77c-.06.72,0,1.27.94,1.45,3,.56,6,1.35,9,1.85s5.83,1.73,8.8,2.41c4.94,1.13,9.34,3.68,14,5.53,2.21.87,4.2,2,6.7,1.41.7-.15,1.55.64,2.06,1,5.79,4.06,11.74,7.89,17,12.67,2.44,2.21,3.59,5.62,6.83,7"/><path class="cls-1" d="M186.51,320.33c-3.88-.74-7.77-.19-11.65-.09a92.53,92.53,0,0,1-11.42-.55A108.21,108.21,0,0,1,152.27,318a146,146,0,0,1-16.43-4.21c-.63-.2-1.5-.62-2.13.21"/><path class="cls-1" d="M296.63,236.25a2.14,2.14,0,0,1,.25,2.38c-1.53,3.64-3,7.32-4.55,10.93-.92,2.11-2,4.13-3.07,6.2"/><path class="cls-1" d="M50.47,173a189.28,189.28,0,0,0-1.2,26.4,10.1,10.1,0,0,0,1.2,5.23"/><path class="cls-1" d="M177.71,301.42c1.17.75,2.52.55,3.81.71,6.47.84,13,1.05,19.5,1.28,5.39.19,10.8-.49,16.17.39"/><path class="cls-1" d="M211.48,59.54c2.17.45,3.89,1.92,5.94,2.63a10.37,10.37,0,0,0,3.58.94c2-.06,2.95,1.31,3.82,2.84a2.08,2.08,0,0,1-.63,3.08c-.93.65-2,1.13-3,1.69"/><path class="cls-1" d="M94.23,88.79c-3.4,0-4.7,3.26-7.08,4.85s-4.23,3.23-7.19,3a5.18,5.18,0,0,0-4.34,2.06q-6.23,6.76-12.07,13.85"/><path class="cls-1" d="M287.35,153.49c3,3.68,4.76,8.07,6.65,12.37,1,2.27,1.92,4.59,2.87,6.89"/><path class="cls-1" d="M176.52,47.29c-2.74-.59-5.36-1.77-8.33-1.11-3.69.81-7.45,1.29-11.17,2a3,3,0,0,0-1.9.93"/><path class="cls-1" d="M338,224.12c1.48,2.49-.5,4.47-1.31,6.37-1.67,4-4,7.67-6.06,11.47"/><path class="cls-1" d="M290.92,56.21c.81.28,1.38-.54,2.39-.47A116,116,0,0,1,303.55,69c3.57,5.32,6.68,10.92,10,16.4a2.07,2.07,0,0,1-.51,3.11c-1.72,1.43-1.93,3.6-2.74,5.48"/><path class="cls-1" d="M319,197.13c-1.53.49-.84,2-.84,2.73,0,2.56-1.5,4.47-2.31,6.64-1.47,3.92-3.85,7.44-5.81,11.12a51.08,51.08,0,0,1-9,12.3c-2.59,2.56-3.9,6-6.74,8.25-2.54,2-3.91,5-5.73,7.59-.51.72-.75,1.56-.19,2.11,1.1,1.07.67,2,.21,3.13-.79,1.92-1.92,3.77-.54,6,.48.77,0,1.87-.68,2.56a3.3,3.3,0,0,0-.93,2.87"/><path class="cls-1" d="M304.72,182l-1.93-1.91c-.53,0-.46.37-.45.72.08,3.09,0,6.19.28,9.27a71,71,0,0,1,.17,7.85c-.07,3.81-.2,7.62-.48,11.41s-.6,7.49-1.22,11.18c-.45,2.7,0,5.6-1.56,8.12-.26.42.11,1.24.19,1.87"/><path class="cls-1" d="M129,290c5.37,4.52,10.62,9.19,16.64,12.86.32.19.49.62.73.94"/><path class="cls-1" d="M290.68,128.27c3.6,4.83,6,10.29,8.68,15.64a148.72,148.72,0,0,1,5.71,13.9c1.89,5,2.82,10.42,4.16,15.65,1,3.84,1.27,7.8,2,11.68.59,3.06.25,6.33,0,9.48a5.1,5.1,0,0,0,.32,2.39"/><path class="cls-1" d="M251,300.71a11.77,11.77,0,0,0-2.37-.07c-6.06-.08-10.39,4-15.47,6.24a120.54,120.54,0,0,1-11.62,4.84c-.71.23-1.82.34-2.17,1.35"/><path class="cls-1" d="M137.28,79.28c-3,1-6,2-9,2.84a48.39,48.39,0,0,0-7.37,2.39"/><path class="cls-1" d="M340.87,238.87a113.24,113.24,0,0,1-6.93,15.21,2.45,2.45,0,0,0-.21,1"/><path class="cls-1" d="M73.44,185.76a91.45,91.45,0,0,0-1.32,12.83c-.07,4.83-1.48,9.65-1.31,14.51.11,3.34,1.85,6.63,1.57,10,0,.25-1.28.5-1.48.7,0,0-.3-.14-.46-.22"/><path class="cls-1" d="M138,68.82a11.59,11.59,0,0,1,0,2.36c-.11.52,0,1.27-.91,1.45-5.61,1.17-10.68,3.79-15.94,5.94"/><path class="cls-1" d="M252.63,281.44c-2.34-.25-3.89,1.53-5.66,2.47a100.54,100.54,0,0,1-11.24,5.36c-2,.78-2.81,2.33-3.08,4.3"/><path class="cls-1" d="M269.28,264.79c-4.88,5.67-9.34,11.67-15.59,16.09a29.34,29.34,0,0,0-4.82,4.88c-2.05,2.38-4.7,3.67-7.42,5a18.4,18.4,0,0,0-2.61,1.44c-3.05,2.14-6.6,1.65-10,2"/><path class="cls-1" d="M126.46,290c.24-1.63,2.89-2.63,4.86-1.64a115.48,115.48,0,0,0,12.62,5,113.62,113.62,0,0,0,27.35,6.16c1.64.17,3.1,1.63,4.74.94,2.3-1,4.69-.63,6.9-.33,6.74.9,13.36-.14,20-.87,2.62-.29,5.29-.78,7.87-1a78.32,78.32,0,0,0,8.79-.87,37.41,37.41,0,0,0,7.85-2.15"/><path class="cls-1" d="M228.37,293.81c-1.35-.92-2.62-.52-4.06,0-3.76,1.23-7.59,2.26-11.4,3.37"/><path class="cls-1" d="M304.24,229.83c-.79,4.84-1.72,9.66-2.33,14.52-.34,2.76-.87,5.23-3.1,7.17-.82.72-1.15,2-1.71,3"/><path class="cls-1" d="M294.73,257.9a95.34,95.34,0,0,1-6.65,10.47c-1.26,1.61-2.29,3.41-3.61,5a3.73,3.73,0,0,0-.71,4.56c.3.58-.28,1.13-.57,1.65"/><path class="cls-1" d="M45,174.65a100.49,100.49,0,0,0-.46,11.89c0,2.26.76,4.63.68,6.65-.15,3.73.48,7.47-.19,11.2-.8,4.41-.47,8.86-.06,13.31a197.62,197.62,0,0,0,5,30c.46,1.84,2,2.88,2.66,4.51"/><path class="cls-1" d="M124.42,115.66c.53-.85,1.2-1.82.47-2.83-.91-1.27-2.06-2.32-3.78-2.13a1.72,1.72,0,0,0-1.67,1.88c0,.92-.18,1.92,1.19,2.16a10.58,10.58,0,0,1,1.9.69"/><path class="cls-1" d="M206.73,70.24c-.18,1-1.16.86-1.67.9-5.05.34-9.79,2.14-14.74,2.91a1.56,1.56,0,0,0-1.43,1.9"/><path class="cls-1" d="M297.1,173.23a114.12,114.12,0,0,1,3.56,11.41,4.14,4.14,0,0,0,1.44,2.62"/><path class="cls-1" d="M240.74,83.56c.29,1.64,1.81,2.16,2.86,3.08,2.63,2.29,6,3.67,7.73,7.08.65,1.25,2.19,2.36,3.46,3.38a15.14,15.14,0,0,1,4,4.55,2.54,2.54,0,0,0,3.1,1.37c1.81-.51.68-1.79.5-2.81a6.75,6.75,0,0,1,0-1.19"/><path class="cls-1" d="M85,102.83c-4.55,4.55-8.11,9.94-12.69,14.74h1.28"/><path class="cls-1" d="M308,13.4c-2.76-.51-4.76,1-6.64,2.64a2.19,2.19,0,0,0-.48,2.82,3.15,3.15,0,0,0,2.84,1.91,1.81,1.81,0,0,0,1.63-2.6,18.49,18.49,0,0,0-1.86-2.87"/><path class="cls-1" d="M19.79,182.74c.7,3.69.31,7.5,1.16,11.18.45,2,.66,4,1,5.94"/><path class="cls-1" d="M276.65,310.22c-4.91,1.9-9.79,3.91-14.76,5.67a72.67,72.67,0,0,0-9.75,3.81c-1.89,1-4.13.75-6.2,1.35-3.61,1-7.47,1.19-11.14,2.07s-7.17.35-10.71.9a62.2,62.2,0,0,1-17.82-.15c-4-.52-7.91,0-11.79-.81"/><path class="cls-1" d="M337.54,161.1c1.44,1.54,1.43,3.69,1.77,5.49,1.15,6.06,3,12,3.06,18.29,0,1.24-.1,2.72,1.05,3.87.33.33,1.26,1.92-.65,2.08"/><path class="cls-1" d="M309.23,229.36c-1.09,3.78-1.87,7.66-3.75,11.2-.36.68.19,1.81-.09,2.57-1.78,4.81-3.32,9.71-5.69,14.28-.08.16-.46.17-.69.25"/><path class="cls-1" d="M183.89,60c-2.63,0-5.24-.48-7.85-.62a36.84,36.84,0,0,0-7.84.9,4.87,4.87,0,0,1-2.13-.08c-3.7-1-7.31-.31-11,.23-1.72.25-3.49.08-5.24.45a5.78,5.78,0,0,0-3.08,1.26"/><path class="cls-1" d="M56.89,143c0,3.54-1.09,7-2.11,10.16-1.24,3.92-.08,7.53-.18,11.25-.07,2.91-.15,39.87-.09,42.81"/><path class="cls-1" d="M129.67,100c1.72.52,2.6-.49,2.8-1.91s-1.23-2.07-2.34-2.32a10.79,10.79,0,0,0-7.83.91,3.49,3.49,0,0,0-1.9,2.85c-.13,1.51,1.21,1.49,2.13,1.9,3.26,1.44,5.39.84,6.78-1.9"/><path class="cls-1" d="M173.43,301.42c-2.5,1.5-5.4,1.1-8.1,1.62a67.57,67.57,0,0,1-15,1c-.73,0-.82.79-1.43.75"/><path class="cls-1" d="M239.55,302.85c-1.75-1.34-3.55-.05-5.22.12-3.34.34-6.67.54-10,.55-.94,0-2,.92-2.86-.2"/><path class="cls-1" d="M286.88,152.89c-1.39.6-.72,1.67-.45,2.49,1.29,4.06,2.69,8.09,4,12.14a135.81,135.81,0,0,1,4.89,22.61c.67,4.51.55,9.17.68,13.77.1,3.51.07,7-.14,10.47A146.4,146.4,0,0,1,292.75,236a8.8,8.8,0,0,0-.16,3.34"/><path class="cls-1" d="M137.52,72.86c1.35,3.89,3,4.73,7.13,4.31,10.52-1.07,21-2.29,31.63-1.62,1.8.11,3.91-.5,5.47,1.11"/><path class="cls-1" d="M246.68,60.25a117.33,117.33,0,0,1,19.49,13.57c.33.29.64.18,1,.23"/><path class="cls-1" d="M72.16,224a38.63,38.63,0,0,0,1.91,13.54c1.74,5.07,14.3,18.14,16.69,22.94"/><path class="cls-1" d="M219.09,74.29c-2.57-2.06-5.92-2.07-9.05-3.28-.26.66-2.07,1-.46,2.32"/><path class="cls-1" d="M250.49,91.65a4.29,4.29,0,0,1,2.22.83c3.25,2.3,5.68,5.51,9,7.73"/><path class="cls-1" d="M113.49,105.68a44.09,44.09,0,0,1-10.68,7.41c-.6.27-1.14.07-1.68.2"/><path class="cls-1" d="M63.07,140.88c-2.26-.71-4.46-1.14-6,1.43-.26.45-.7.46-1.18.49-1.47.07-2,1.07-2.39,2.36A147.6,147.6,0,0,1,48,160.6a36.74,36.74,0,0,1-3.28,7.16"/><path class="cls-1" d="M153.57,70.72A3.85,3.85,0,0,0,157,72.15a93.2,93.2,0,0,1,12.61.63c4.31.34,8.56,1,12.84,1.5.23,0,.57-.1.7,0,2.23,2.07,5.39,1.29,7.86,2.6"/><path class="cls-1" d="M237.41,85.46a116.27,116.27,0,0,1,9.77,10.45,1.51,1.51,0,0,1,.45,1.21"/><path class="cls-1" d="M73.54,145.64c.53.89-5.69,2.48-5.71,3.56-.15,6.45-3.89,11.44-2.73,17.84.46,2.54,1.31,8.36,2.3,10.8"/><path class="cls-1" d="M208.15,341.14c-4.79,1.18-9.55,2.48-14.5,2.88a3.09,3.09,0,0,0-2.47,1.58c-2.24,3.26-7,4.69-9.9,2.91"/><path class="cls-1" d="M300,173.7c.91.17,1.59-.45,2.38-.69a2,2,0,0,1,2.59,2.12c0,2.38,1.17,4.68.11,7.17-.47,1.1.86,2.3,1.1,3.53.4,2-.48,4-.69,5.95a5.44,5.44,0,0,0,.22,1.42"/><path class="cls-1" d="M166.06,60.49a1.9,1.9,0,0,1-1.43,2.39,39.29,39.29,0,0,0-6.21,2.79c-.78.36-1.23.62-1.16,1.48"/><path class="cls-1" d="M280.22,278.11c-.55,1.66-2,2.59-3.09,3.81-3.26,3.64-6,7.73-10.21,10.5a3,3,0,0,0-1.69,2.34"/><path class="cls-1" d="M138,75.24a64.8,64.8,0,0,1-10.7,4"/><path class="cls-1" d="M184.37,60.25c1.16,1.12,2.7.79,4,.91,5.3.48,10.25,2.49,15.45,3.36,1.16.2.95,1.29,1.43,1.92"/><path class="cls-1" d="M335.4,156.58a3.15,3.15,0,0,1,1.37,1.91c.08.84,1.4,2-.2,2.57-1.14.43-2.43.69-3.09-.91-.29-.72-.68-1.41-1.07-2.19,1-.48,1.34-1.91,2.75-1.62"/><path class="cls-1" d="M75,271.45c.16.08.38.12.47.25,3.13,4.37,7.41,7.66,11.06,11.54,3.2,3.4,5.67,7.54,10.5,9.61,2.9,1.24,5.55,3.81,8.18,5.95a1.55,1.55,0,0,1,.48,1.19"/><path class="cls-1" d="M53.32,159c-.87,4.12-1.78,8.23-2.59,12.37-.15.8-.09,1.22-1.18,1.54s-1.29,2.07-1.4,3.22a51.07,51.07,0,0,1-1.25,6.17"/><path class="cls-1" d="M179.14,63.82l-.34,2c-3.27.59-6.69,1.48-10.12,1-3.81-.55-7.52,0-11.17.65-3.1.54-6.22,1.36-9.32,1.9-3.32.57-6.38,2.76-10,1.8"/><path class="cls-1" d="M244.78,61c.09-.36-.23-.78.47-1,1.72-.51,3.18-2.66,2.86-4-.39-1.64-2.6-2.82-4.52-2.37-.57.14-1.12.5-1.66,0-1.52-1.43-3.41-1.15-5.24-1.19"/><path class="cls-1" d="M282.6,250.05A9.8,9.8,0,0,1,284,252.2c.28.9,0,2.31-.7,2.52-2.72.79-3.19,3.65-5.15,5.14a43.14,43.14,0,0,0-4.81,4.93"/><path class="cls-1" d="M71.87,118.29c-1.15,3.08-3.54,5.41-5,8.3-1.86,3.63-3.94,7.15-5.92,10.72"/><path class="cls-1" d="M190.08,342.09c-2.3,2-4.46,4.29-7.62,5-1.05.23-1.47,1.26-2.36,1.69-1.11.53-2.16,1.14-3.34.23"/><path class="cls-1" d="M56.89,121.14c-3.24,4.36-5.58,9.25-8.09,14"/><path class="cls-1" d="M343.6,191.06c1.48,4,1.31,8.29,1.37,12.37.06,4.27-1.33,8.56-2.08,12.84-2,1.17-1.45,3.6-2.5,5.24"/><path class="cls-1" d="M165.34,68.1c-3,.85-6.1.81-9.08,1.76-.78.24-1.56.56-2.33.86"/><path class="cls-1" d="M208.15,93.55a4.51,4.51,0,0,0-3.1-4.71c-2-.46-3.25.83-4,2.57"/><path class="cls-1" d="M36,235.3a4.75,4.75,0,0,0,2.36-2.86c.39-1.18-.38-1.94-1.64-1.64-1,.23-1.91.62-3.08,1,.54,2.18.78,4.53,1.73,6.54a16.43,16.43,0,0,1,2.06,6.23"/><path class="cls-1" d="M54.51,207.24c1.35,1.16.93,2.88,1.1,4.29.36,3,1.09,6,1.52,9"/><path class="cls-1" d="M164.87,60.73c-2.49,1.17-5.21,1.37-7.85,1.89-.58.12-1.27-.22-1.67.49"/><path class="cls-1" d="M63.07,112.81a31.78,31.78,0,0,0-5.71,8.09"/><path class="cls-1" d="M93,94c-.12.47.22,1-.23,1.43a43,43,0,0,1-6.43,5.7"/><path class="cls-1" d="M271.66,266.22c-1.85,2-4.19,3.39-6,5.44a2.42,2.42,0,0,1-2.1.74"/><path class="cls-1" d="M57.6,121.38c.1,4.25-.65,8.41-1.14,12.61-.12,1.08-.67,2.45.67,3.32"/><path class="cls-1" d="M68.54,212.62a26.27,26.27,0,0,0,1.67,10.46"/><path class="cls-1" d="M217.9,337.57c-2.77,2-6.09,2.47-9.27,3.33"/><path class="cls-1" d="M56.65,187.73c1.09,2.26.7,4.81,1.43,7.14.07.24.16.47.24.71"/><path class="cls-1" d="M124.2,286.2a20.45,20.45,0,0,1,1.85-4.31c.76-1.21.68-2.62-.91-3.28-1.44-.6-2.89-1.07-4.53-.3-1.42.67-1.15,1.79-1.17,2.89"/><path class="cls-1" d="M306.38,189.16c1.29,1.39.67,3.17,1,4.75.63,3,.13,6.06.68,9,0,.09.15.16.23.24"/><path class="cls-1" d="M154.88,63.34c-2,0-3.66,1.27-5.71,1.28-1.38,0-2.6.68-4.11-.21-.81-.48-2.31.2-3.5.36"/><path class="cls-1" d="M58.79,169.9a61.05,61.05,0,0,0-2.88,10.22c-.64,2.75.05,5.72-1.4,8.33"/><path class="cls-1" d="M209.58,70.72c-2.85-.72-5.69-1.5-8.57-2.09a4.81,4.81,0,0,1-1.89-.77"/><path class="cls-1" d="M143.22,66c-1,1.6-2.71,1.82-4.28,2.1-3.69.67-6.95,2.49-10.46,3.61"/><path class="cls-1" d="M335.4,156.34c.29-2.82-1-5.22-2.17-7.6-1.46-3-2.15-6.31-4.49-8.81"/><path class="cls-1" d="M30,225.07a42.16,42.16,0,0,1,2.09,4.54,3.75,3.75,0,0,0,1.72,1.89"/><path class="cls-1" d="M133,105.68l-7.14,6.9"/><path class="cls-1" d="M293.54,257.18a29,29,0,0,1-14.05,8.5,11.57,11.57,0,0,1-7.12-.17"/><path class="cls-1" d="M287.83,246.72a4.61,4.61,0,0,1-1.19.22c-1.77-.13-3.09-.12-3.94,2.1-.66,1.73-3.12,2.25-4.44,3.81-.9,1.06-1.95,2-2.8,3.14"/><path class="cls-1" d="M275.7,256.71c-1.05,2.14-3.22,3.3-4.53,5.22-.43.62-1.21,1-1.19,2l1.91,1.38"/><path class="cls-1" d="M23.59,321.64c-1.35-.59-2.66-.92-3.56.71a3.8,3.8,0,0,0,1.19,4.26c.66.42,1.44.62,2.13,1,2,1,2.37,2.38,1.45,4.52a4.68,4.68,0,0,0-.73,2.37"/><path class="cls-1" d="M296,94.5a8.52,8.52,0,0,1,5.18,6.65,2.94,2.94,0,0,1-.3,1.68"/><path class="cls-1" d="M224.8,75.24c-.53,2.34.25,4.6.48,6.89"/><path class="cls-1" d="M125.15,288.34c-2.2.64-3.65,2.3-5.26,3.78-.4.37,0,.68-.21,1"/><path class="cls-1" d="M318.27,197.25c-1.84-1.95-3.86-1.53-5.94-.48s-1.59,3-1.67,4.76"/><path class="cls-1" d="M317.56,200.34c-1.72.94-3.33,2.09-5.47,1.95-.74,0-1.09-.57-1.55-.73-3.57,1.52-3,5.12-3.79,7.85-.9,3.24-1.63,6.55-2.81,9.7-.74,2-1,4.25-2.79,5.73"/><path class="cls-1" d="M301.86,173.46a3.86,3.86,0,0,1,0,3.81,2.28,2.28,0,0,0,.25,2.38"/><path class="cls-1" d="M179.14,66c6.45-.09,12.82,1.19,19.26,1.31"/><path class="cls-1" d="M27.4,196.53c-1.31,1.8-3.45,2.29-5.24,3.33"/><path class="cls-1" d="M87.33,127.09c-1.66,1.82-3.33,3.64-5,5.47"/><path class="cls-1" d="M343,217c.68,1.39-.14,2.7-.26,4-.34,3.73-.8,7.45-1.16,11.18a6.5,6.5,0,0,1-1.2,3.33"/><path class="cls-1" d="M138.23,96.17c-2-.07-3.57,1.24-5.47,1.42"/><path class="cls-1" d="M239.55,49.55c-2.52.82-4.93-.07-7.37-.48-.17,0-.32-.22-.48-.22-2.62-.06-5.23.47-7.87-.18a2.17,2.17,0,0,0-2.12.88"/><path class="cls-1" d="M344.43,24.58c-.23,1.27-.51,2.53-.7,3.8a3.05,3.05,0,0,1-1.67,2.39,4.19,4.19,0,0,0-2.35,2.85c-.44,2.4-1.55,4.56-2.17,6.89"/><path class="cls-1" d="M150.6,70.48c.31,1-.38.8-.95,1A80.34,80.34,0,0,0,139.42,75"/><path class="cls-1" d="M310.19,218.41c.89,2.22-.15,4.33-.56,6.41a9.32,9.32,0,0,0-.15,4.29.3.3,0,0,0,.23,0,1.29,1.29,0,0,0,.24-.23"/><path class="cls-1" d="M21.69,199.86c-2.23.06-4.46.39-6.66-.23"/><path class="cls-1" d="M183.18,55a8.32,8.32,0,0,1-5,1.67"/><path class="cls-1" d="M71.16,279.78l-5.23,2.14"/><path class="cls-1" d="M232.89,80.23c.24,2.52,2.94,3,4,4.76"/><path class="cls-1" d="M180.09,343c-4.23,1.25-4.46,1.07-3.57,5.47-1.8,1.2-3.6,2.38-6,1.94-.11,0-.31.44-.47.68"/><path class="cls-1" d="M290.92,103.54c.79.4,1.6.77,2.38,1.19,3.27,1.75,5.27,1.25,7.61-1.9"/><path class="cls-1" d="M168.2,38.61c1.26,1.4.94,3.11,1,4.76"/><path class="cls-1" d="M34.53,236.73c-.55.24-1.28.32-1.63.74-2,2.3-4.33,1.52-6.7,1.06a6.73,6.73,0,0,0-1.66.1"/><path class="cls-1" d="M119.92,100.92c-1.68.89-2.74,2.59-4.52,3.33"/><path class="cls-1" d="M97.56,91.17c-1.07.36-1.73,1.3-2.79,1.8a4,4,0,0,1-5.06-.85"/><path class="cls-1" d="M290,109c2.37,1.36,1.65,3,.47,4.76"/><path class="cls-1" d="M72.59,268.36a31.59,31.59,0,0,1-6.66.25,2.44,2.44,0,0,0-2.14.46"/><path class="cls-1" d="M344.2,182.74c.15,1.75.6,3.52-.24,5.23"/><path class="cls-1" d="M46.19,187.73l-.48,4.05"/><path class="cls-1" d="M312.09,205.57a14.9,14.9,0,0,0-.48,7.14"/><path class="cls-1" d="M193.88,322.83c-1.4-1.15-3.15-.93-4.76-1.14a4.12,4.12,0,0,1-1.9-.77"/><path class="cls-1" d="M27.87,52.4a4,4,0,0,1-3.81.25c-.8-.35-1.72-.76-1.9.71"/><path class="cls-1" d="M226.7,68.82c3.85.87,7.79.19,11.66.7,1.18.15,2.38.17,3.57.25"/><path class="cls-1" d="M343.24,30.29c1.53.6,2.26,2.27,3.86,2.76-.2.49-.36.88-.53,1.28"/><path class="cls-1" d="M241.93,54.07c-1,2.81-.14,4.81,2.61,6"/><path class="cls-1" d="M91.61,85.94l-.23,3.57"/><path class="cls-1" d="M198.88,93.07l1.93-1.54a11.21,11.21,0,0,1,3.54,2.5"/><path class="cls-1" d="M278.55,122.8c1.27.48,2.53,1,3.81,1.42.94.33,1.86.88,2.86,0a2.22,2.22,0,0,1,3.23.54c.67.85,1.42,2.2.35,3.51a4.54,4.54,0,0,0-.5,1.41"/><path class="cls-1" d="M311.85,225.55c-1.4.46-.33,2.36-1.66,2.85"/><path class="cls-1" d="M287.12,249.1c-1.05.79-1.22,2.38-2.62,2.85"/><path class="cls-1" d="M280,119.47c2-.08,5.28,2.16,6.18,4.29"/><path class="cls-1" d="M100.65,115.67a8.68,8.68,0,0,0-3.09,2.38"/><path class="cls-1" d="M67.83,269.07a4.86,4.86,0,0,0,4,3.57"/><path class="cls-1" d="M184.37,59.78a11.69,11.69,0,0,1,8.35.42c.77.37,1.22.62,1.16,1.48"/><path class="cls-1" d="M343.72,37.18a13.64,13.64,0,0,1-4.28-1"/><path class="cls-1" d="M69.49,279.06l-2.87-2.51-2.36,2.75"/><path class="cls-1" d="M147.5,72.62c.92,1.95-1,2.72-1.66,4"/><path class="cls-1" d="M120.15,50a6.32,6.32,0,0,0,6.19,1.42"/><path class="cls-1" d="M178.9,349.94l.24,3.09"/><path class="cls-1" d="M251.2,320.45c.13,1.56-2.13,1.17-2.14,2.61"/><path class="cls-1" d="M222.19,66.91c-.62.73-1.81,1-1.91,2.14"/><path class="cls-1" d="M304.24,167c-.37,1.73.93,3.54-.24,5.23"/><path class="cls-1" d="M184.85,76c-.9.83-2.12.25-3.1.71"/><path class="cls-1" d="M96.13,292.62c-.49.85-.74,1.82.26,2.33.85.43.26,1,.46,1.48"/><path class="cls-1" d="M255.48,298.57h2.62"/><path class="cls-1" d="M195.07,300.47l-.24,2.61"/><path class="cls-1" d="M39.76,169.9c-.91.17-1.1,1.43-2.14,1.42"/><path class="cls-1" d="M305.19,243.39c-.86,0-1.78-.17-2.14,1"/><path class="cls-1" d="M177.71,56.92c-1.08.4-2.62.28-2.38,2.14"/><path class="cls-1" d="M213.39,69.77l-2.38.47"/><path class="cls-1" d="M285,279.78a2.3,2.3,0,0,1,.24,2.37"/><path class="cls-1" d="M23.35,202.24c1.56,0,1.33,2,2.62,2.38"/><path class="cls-1" d="M255.25,62.87a1.89,1.89,0,0,1,.23,2.14"/><path class="cls-1" d="M52.13,255l-.24,2.26"/><path class="cls-1" d="M220.28,73.1c-1.41,1.28-2,2.72-.45,4.25.67.67-.17,1.66.69,2.17"/><path class="cls-1" d="M86.62,95.45l.24,1.67"/><path class="cls-1" d="M55.22,204.62a1.85,1.85,0,0,1,0,2.38"/><text class="cls-2" transform="translate(89.63 271.45)">e</text><text class="cls-3" transform="translate(87.33 224.03)">emily</text></svg>